<?xml version="1.0" encoding="utf-8"?>
<!-- Generator: Adobe Illustrator 18.0.0, SVG Export Plug-In . SVG Version: 6.00 Build 0)  -->
<!DOCTYPE svg PUBLIC "-//W3C//DTD SVG 1.1//EN" "http://www.w3.org/Graphics/SVG/1.1/DTD/svg11.dtd" [
	<!ENTITY ns_flows "http://ns.adobe.com/Flows/1.0/">
	<!ENTITY ns_extend "http://ns.adobe.com/Extensibility/1.0/">
	<!ENTITY ns_ai "http://ns.adobe.com/AdobeIllustrator/10.0/">
	<!ENTITY ns_graphs "http://ns.adobe.com/Graphs/1.0/">
]>
<svg version="1.1" id="Layer_1" xmlns:x="&ns_extend;" xmlns:i="&ns_ai;" xmlns:graph="&ns_graphs;"
	 xmlns="http://www.w3.org/2000/svg" xmlns:xlink="http://www.w3.org/1999/xlink" xmlns:a="http://ns.adobe.com/AdobeSVGViewerExtensions/3.0/"
	 x="0px" y="0px" width="1400px" height="980px" viewBox="0 0 1400 980" enable-background="new 0 0 1400 980" xml:space="preserve"
	>
<g>
	<g>
		<path d="M86,279.2c0,106.6,86.8,193.4,193.4,193.4s193.4-86.8,193.4-193.4S386.1,85.8,279.4,85.8S86,172.6,86,279.2z M459.9,279.2
			c0,99.5-80.9,180.4-180.4,180.4S99,378.7,99,279.2S179.9,98.8,279.4,98.8S459.9,179.7,459.9,279.2z"/>
		<path d="M341.9,183.8c13,8.6,24.2,19.7,32.8,32.7l30.9-17.9c-11.8-18.4-27.4-34.1-45.9-45.8L341.9,183.8z"/>
		<path d="M153.2,198.7l30.9,17.9c8.6-13,19.8-24.2,32.8-32.7l-17.9-30.9C180.7,164.7,165,180.3,153.2,198.7z"/>
		<path d="M285.9,165.4c16,0.9,31.2,5.1,44.7,12l17.9-30.9c-18.9-9.8-40.1-15.8-62.6-16.7V165.4z"/>
		<path d="M153.1,359.5c11.8,18.5,27.4,34.2,45.9,45.9l17.9-30.9c-13.1-8.6-24.2-19.8-32.8-32.9L153.1,359.5z"/>
		<path d="M342,374.5l17.9,30.9c18.4-11.8,34.1-27.5,45.9-45.9l-30.9-17.9C366.2,354.7,355.1,365.9,342,374.5z"/>
		<path d="M272.9,165.4v-35.7c-22.5,1-43.7,6.9-62.6,16.7l17.9,30.9C241.8,170.5,256.9,166.3,272.9,165.4z"/>
		<path d="M393.2,272.6h35.7c-1-22.5-7-43.8-16.8-62.6l-30.9,17.8C388.1,241.4,392.3,256.5,393.2,272.6z"/>
		<path d="M285.9,428.7c22.6-1,43.8-6.9,62.7-16.8L330.8,381c-13.6,6.9-28.8,11.1-44.9,12V428.7z"/>
		<path d="M412.2,348.2c9.8-18.9,15.8-40.2,16.7-62.7h-35.7c-0.9,16.1-5.1,31.2-11.9,44.9L412.2,348.2z"/>
		<path d="M165.6,272.6c0.9-16,5.2-31.2,12-44.8l-30.9-17.8c-9.9,18.9-15.8,40.1-16.8,62.6H165.6z"/>
		<path d="M146.6,348.2l30.9-17.9c-6.9-13.6-11.1-28.8-11.9-44.9h-35.7C130.8,308.1,136.8,329.3,146.6,348.2z"/>
		<path d="M272.9,428.7V393c-16.1-0.9-31.3-5.1-44.9-12l-17.8,30.9C229.1,421.8,250.4,427.7,272.9,428.7z"/>
		<path d="M332.5,243.8c4.9-4.9,4.9-12.9,0-17.8c-4.9-4.9-12.9-4.9-17.8,0c-3.2,3.2-4.3,7.8-3.3,12l-20.5,20.5
			c-3.4-1.9-7.3-3-11.5-3c-4.2,0-8.1,1.1-11.5,3l-20.5-20.5c1-4.1-0.1-8.7-3.3-12c-4.9-4.9-12.9-4.9-17.8,0
			c-4.9,4.9-4.9,12.9,0,17.8c3.2,3.2,7.8,4.3,12,3.3l20.4,20.4c-1.9,3.4-3.1,7.4-3.1,11.7c0,4.2,1.1,8.1,3,11.5l-20.4,20.4
			c-4.1-1-8.7,0.1-12,3.3c-4.9,4.9-4.9,12.9,0,17.8c4.9,4.9,12.9,4.9,17.8,0c3.2-3.2,4.3-7.8,3.3-12l20.3-20.3
			c3.4,1.9,7.4,3.1,11.7,3.1c4.2,0,8.2-1.1,11.7-3.1l20.3,20.3c-1,4.1,0.1,8.7,3.3,12c4.9,4.9,12.9,4.9,17.8,0
			c4.9-4.9,4.9-12.9,0-17.8c-3.2-3.2-7.8-4.3-12-3.3l-20.4-20.4c1.9-3.4,3-7.3,3-11.5c0-4.2-1.1-8.2-3.1-11.7l20.4-20.4
			C324.7,248.1,329.3,247,332.5,243.8z"/>
		<path d="M361.7,280.6c0,6.1,4.9,11,11,11s11-4.9,11-11s-4.9-11-11-11S361.7,274.5,361.7,280.6z M370.8,276.4
			c-1.1,0-1.9-0.9-1.9-1.9c0-1.1,0.9-1.9,1.9-1.9c1.1,0,1.9,0.9,1.9,1.9C372.7,275.6,371.9,276.4,370.8,276.4z"/>
	</g>
	<g>
		<path d="M1309.3,273.9c0-0.2,0-0.3,0-0.5c0-0.5,0-1-0.1-1.5c-0.1-1.5-0.1-3-0.2-4.5c0-0.5-0.1-0.9-0.1-1.4
			c-0.1-1.9-0.3-3.7-0.5-5.5c0-0.1,0-0.1,0-0.2c-0.4-4.2-0.9-8.3-1.6-12.4c0,0,0-0.1,0-0.1c-1-6.1-2.3-12.2-3.9-18.1
			c-0.1-0.2-0.1-0.4-0.2-0.6c-0.4-1.6-0.9-3.2-1.4-4.8c-0.1-0.5-0.3-1-0.4-1.5c-0.4-1.3-0.8-2.6-1.2-3.9c-0.5-1.5-1-2.9-1.5-4.4
			c-0.2-0.6-0.4-1.3-0.7-1.9c-0.5-1.4-1-2.7-1.6-4.1c-0.1-0.2-0.1-0.3-0.2-0.5c-2.6-6.5-5.5-12.9-8.8-19.2l0.1-0.1l-3.2-5.6
			c0,0,0,0,0,0l-3.2-5.7l-0.1,0.1c-15.6-25.3-36.8-46.7-62-62.5l0.1-0.1l-5.6-3.3l-5.6-3.3l-0.1,0.1c-6.5-3.5-13.2-6.6-20.1-9.3
			c-0.3-0.1-0.7-0.3-1-0.4c-1.1-0.4-2.2-0.9-3.4-1.3c-0.9-0.3-1.8-0.7-2.7-1c-0.7-0.3-1.5-0.5-2.2-0.8c-1.8-0.6-3.6-1.2-5.4-1.7
			c-0.3-0.1-0.6-0.2-0.8-0.3c-1.7-0.5-3.5-1-5.2-1.5c-0.2,0-0.4-0.1-0.5-0.1c-11.9-3.2-24.3-5.3-37.1-6.2c-0.3,0-0.6,0-0.8-0.1
			c-1.7-0.1-3.5-0.2-5.2-0.3c-0.2,0-0.4,0-0.7,0v-0.1l-6.3,0c0,0-0.1,0-0.1,0c0,0-0.1,0-0.1,0h-6.5v0.1c-0.3,0-0.6,0-0.8,0
			c-1.6,0.1-3.2,0.1-4.7,0.2c-0.4,0-0.8,0-1.2,0.1c-6.2,0.4-12.4,1.2-18.4,2.2c-0.1,0-0.1,0-0.2,0c-6.2,1-12.2,2.3-18.2,3.9
			c-0.3,0.1-0.5,0.1-0.8,0.2c-1.7,0.5-3.3,0.9-5,1.4c-0.3,0.1-0.6,0.2-1,0.3c-1.8,0.5-3.5,1.1-5.3,1.7c-0.8,0.3-1.6,0.6-2.4,0.8
			c-0.9,0.3-1.7,0.6-2.5,0.9c-1.1,0.4-2.2,0.8-3.4,1.3c-0.3,0.1-0.6,0.3-1,0.4c-6.9,2.7-13.7,5.9-20.2,9.4l-0.1-0.1l-5.6,3.3
			l-5.6,3.3l0.1,0.1c-25.1,15.8-46.3,37.2-61.9,62.5l-0.1-0.1l-3.2,5.7l-3.2,5.6l0.1,0.1c-3.3,6.2-6.2,12.6-8.7,19.1
			c-0.1,0.2-0.2,0.4-0.2,0.6c-0.5,1.3-1,2.6-1.5,4c-0.5,1.5-1.1,3-1.6,4.5c-0.2,0.6-0.4,1.1-0.6,1.7c-0.4,1.3-0.9,2.7-1.3,4
			c-0.1,0.5-0.3,0.9-0.4,1.4c-0.5,1.6-1,3.3-1.4,5c0,0.2-0.1,0.3-0.1,0.5c-1.6,6-2.9,12-3.9,18.2c0,0,0,0,0,0
			c-0.7,4.1-1.2,8.2-1.6,12.4c0,0,0,0.1,0,0.1c-0.2,1.8-0.3,3.7-0.5,5.5c0,0.4-0.1,0.9-0.1,1.3c-0.1,1.5-0.2,3-0.2,4.5
			c0,0.5,0,1-0.1,1.5c0,0.2,0,0.3,0,0.5h-0.1l0,4.9c0,0.1,0,0.3,0,0.4c0,0.3,0,0.5,0,0.8l0,6.9h0.1c0,0,0,0.1,0,0.1
			c0.8,19.1,4.3,37.6,10.3,54.9c0.2,0.6,0.4,1.2,0.6,1.8c0.4,1,0.7,2.1,1.1,3.1c0.4,1,0.7,1.9,1.1,2.9c0.2,0.4,0.3,0.9,0.5,1.3
			c2.7,6.9,5.9,13.6,9.4,20.2l-0.1,0.1l3.3,5.6l3.3,5.6l0.1-0.1c15.7,24.8,36.9,45.9,61.8,61.3l-0.1,0.1l5.6,3.2l5.6,3.2l0.1-0.1
			c7.8,4.1,15.9,7.7,24.1,10.7c0.1,0,0.2,0.1,0.2,0.1c2,0.7,4.1,1.4,6.1,2.1c1.1,0.4,2.3,0.7,3.4,1.1c0.6,0.2,1.2,0.4,1.8,0.5
			c1.4,0.4,2.9,0.8,4.3,1.2c0.4,0.1,0.7,0.2,1.1,0.3c5.9,1.6,11.8,2.8,17.9,3.8c0.1,0,0.2,0,0.2,0c6,1,12,1.7,18.1,2.1
			c0.4,0,0.8,0.1,1.3,0.1c1.5,0.1,3.1,0.2,4.7,0.2c0.2,0,0.5,0,0.7,0l0,0.1l6.7,0c0,0,0.1,0,0.1,0l6.3,0v-0.1c0.3,0,0.6,0,0.9,0
			c1.5-0.1,3-0.1,4.5-0.2c0.5,0,0.9-0.1,1.4-0.1c1.9-0.1,3.7-0.3,5.6-0.5c0,0,0.1,0,0.1,0c4.2-0.4,8.3-0.9,12.3-1.6
			c0.1,0,0.2,0,0.2,0c6.1-1,12.1-2.3,17.9-3.8c0.3-0.1,0.6-0.2,1-0.3c1.5-0.4,3-0.8,4.4-1.3c0.6-0.2,1.1-0.3,1.7-0.5
			c1.2-0.4,2.4-0.7,3.5-1.1c2-0.7,4-1.4,6-2.1c0.1,0,0.2-0.1,0.3-0.1c1.5-0.5,2.9-1.1,4.4-1.7c0,0,0,0,0.1,0
			c6.7-2.6,13.2-5.6,19.6-9l0.1,0.1l5.6-3.2l5.6-3.2l-0.1-0.1c25-15.5,46.2-36.5,61.9-61.4l0.1,0.1l3.3-5.6l3.3-5.6l-0.1-0.1
			c3.5-6.6,6.7-13.3,9.4-20.2c0.2-0.4,0.3-0.8,0.5-1.3c0.4-0.9,0.7-1.9,1.1-2.8c0.4-1,0.8-2.1,1.1-3.1c0.2-0.6,0.4-1.2,0.6-1.8
			c6-17.4,9.5-35.8,10.3-55c0,0,0-0.1,0-0.1h0.1l0-6.9c0-0.3,0-0.5,0-0.8c0-0.1,0-0.3,0-0.4l0-4.9H1309.3z M1212.2,126.6
			c23.2,14.6,42.8,34.4,57.2,57.7l-37.5,21.6c-10.6-16.8-24.8-31.1-41.4-41.9l6.5-11.2L1212.2,126.6z M1233.9,273.7
			c-0.8-16.4-4.9-32.5-12.2-47.1l5.3-3.1c7.8,15.6,12.3,32.7,13,50.2H1233.9z M1240,286.7c-1,17.4-5.7,34.4-13.7,49.7l-5.3-3.1
			c7.5-14.4,11.9-30.4,12.9-46.7H1240z M1220.6,212.3l-5.3,3.1c-8.9-13.8-20.6-25.7-34.4-34.8l3.1-5.3
			C1198.7,184.9,1211.2,197.5,1220.6,212.3z M1122.4,98.9c27.5,1,54.5,8.2,78.6,21.1l-21.6,37.5c-17.6-9.2-37-14.4-57-15.3V98.9z
			 M1172.8,168.7l-3.1,5.3c-14.7-7.5-30.8-11.9-47.3-12.7v-6.2C1140,156,1157.2,160.7,1172.8,168.7z M1109.4,155.1v6.2
			c-16.5,0.9-32.6,5.3-47.3,12.8l-3.1-5.3C1074.6,160.7,1091.8,156.1,1109.4,155.1z M1109.4,98.9v43.3c-19.9,1-39.4,6.2-57,15.4
			l-21.6-37.5C1055,107.2,1081.9,99.9,1109.4,98.9z M1050.9,180.7c-13.7,9.1-25.4,20.9-34.3,34.8l-5.3-3.1
			c9.4-14.8,21.9-27.4,36.6-37L1050.9,180.7z M1019.6,126.6l21.6,37.5c-16.6,10.8-30.7,25.1-41.3,41.9l-37.5-21.6
			C976.9,161.1,996.5,141.3,1019.6,126.6z M998,273.7h-6.2c0.8-17.5,5.2-34.6,13-50.1l5.3,3.1C1002.9,241.3,998.8,257.4,998,273.7z
			 M1011,333.3l-5.3,3.1c-8-15.4-12.6-32.3-13.7-49.7h6.2C999.2,303,1003.6,318.9,1011,333.3z M956,195.6l37.5,21.6
			c-8.9,17.6-13.9,36.9-14.7,56.7h-43.2C936.4,246.6,943.4,219.7,956,195.6z M935.7,286.9H979c1.1,19.6,6.4,38.8,15.5,56.1
			L957,364.6C944.2,340.8,936.9,314.1,935.7,286.9z M1020.6,432.4c-23-14.3-42.5-33.7-57.1-56.6l26-15l11.4-6.6
			c10.7,16.3,24.8,30.3,41.2,40.8l-11.7,20.2L1020.6,432.4z M1012.2,347.6l1.7-1l3.6-2.1c9,13.5,20.6,25,34.2,33.8l-3.1,5.3
			C1034.2,374.3,1021.8,362,1012.2,347.6z M1109.4,459.5c-27.1-1-53.7-8.1-77.5-20.6l21.6-37.5c17.3,8.8,36.4,13.9,55.9,14.9V459.5z
			 M1109.4,403.3c-17.3-0.9-34.1-5.4-49.5-13.2l3.1-5.3c14.4,7.2,30.2,11.4,46.4,12.3V403.3z M1116,384.3h-0.1
			c-18.3,0-36.3-4.8-52.1-13.9c-15.9-9.1-29.2-22.2-38.4-38c-9.3-15.8-14.3-33.9-14.5-52.3l0-1.1c0-18.1,4.7-36,13.6-51.6
			c9.2-16.1,22.4-29.6,38.5-39c16-9.4,34.3-14.3,53-14.3l0.2,0c18.6,0,36.8,5,52.8,14.3c16,9.4,29.3,22.8,38.5,39
			c8.9,15.7,13.6,33.6,13.7,51.7l0,1.1c-0.2,18.4-5.2,36.5-14.5,52.3c-9.3,15.8-22.6,28.9-38.5,38
			C1152.3,379.5,1134.3,384.3,1116,384.3z M1219.7,347.6c-9.5,14.4-22,26.7-36.5,36.1l-3.1-5.3c13.6-8.8,25.3-20.4,34.3-33.8
			L1219.7,347.6z M1171.9,390.2c-15.4,7.8-32.3,12.2-49.5,13.1v-6.2c16.2-0.9,32-5.1,46.4-12.3L1171.9,390.2z M1122.4,459.5v-43.3
			c19.5-0.9,38.6-6,55.9-14.8L1200,439C1176.1,451.5,1149.5,458.6,1122.4,459.5z M1211.2,432.5l-10.2-17.6l-11.5-19.9
			c16.5-10.5,30.6-24.4,41.3-40.8l37.5,21.6C1253.8,398.8,1234.2,418.2,1211.2,432.5z M1274.9,364.7l-37.5-21.6
			c9.1-17.3,14.4-36.6,15.5-56.2h43.3C1295.1,314.1,1287.8,340.8,1274.9,364.7z M1253.1,273.9c-0.8-19.8-5.8-39.2-14.7-56.8l20.8-12
			l16.6-9.6c12.6,24.1,19.7,51,20.5,78.4H1253.1z"/>
		<path d="M1169.1,243.8c4.9-4.9,4.9-12.9,0-17.8c-4.9-4.9-12.9-4.9-17.8,0c-3.2,3.2-4.3,7.8-3.3,12l-20.5,20.5
			c-3.4-1.9-7.3-3-11.5-3c-4.2,0-8.1,1.1-11.5,3l-20.5-20.5c1-4.2-0.1-8.7-3.3-12c-4.9-4.9-12.9-4.9-17.8,0
			c-4.9,4.9-4.9,12.9,0,17.8c3.2,3.2,7.8,4.3,12,3.3l20.4,20.4c-1.9,3.4-3.1,7.4-3.1,11.7c0,4.2,1.1,8.1,3,11.5l-20.4,20.4
			c-4.1-1-8.7,0.1-12,3.3c-4.9,4.9-4.9,12.9,0,17.8c4.9,4.9,12.9,4.9,17.8,0c3.2-3.2,4.3-7.8,3.3-12l20.3-20.3
			c3.4,1.9,7.4,3.1,11.7,3.1s8.2-1.1,11.7-3.1l20.3,20.3c-1,4.1,0.1,8.7,3.3,12c4.9,4.9,12.9,4.9,17.8,0c4.9-4.9,4.9-12.9,0-17.8
			c-3.2-3.2-7.8-4.3-12-3.3l-20.4-20.4c1.9-3.4,3-7.3,3-11.5c0-4.2-1.1-8.2-3.1-11.7l20.4-20.4
			C1161.3,248.1,1165.9,247,1169.1,243.8z"/>
	</g>
	<g>
		<path d="M698.1,136.2c-51.2,0-99.4,13.5-135.8,37.9c-37.2,25-57.6,58.5-57.6,94.2v55.6c0,1.2,0.3,2.2,0.8,3.2
			c4.1,31.1,23.9,59.8,56.8,81.9c36.4,24.4,84.6,37.9,135.8,37.9c51.2,0,99.4-13.5,135.8-37.9c32.8-22.1,52.6-50.8,56.8-81.9
			c0.5-0.9,0.8-2,0.8-3.2v-55.6c0-35.8-20.5-69.3-57.6-94.2C797.5,149.6,749.3,136.2,698.1,136.2z M878.5,268.3
			c0,65.7-80.9,119.2-180.4,119.2s-180.4-53.5-180.4-119.2c0-65.7,80.9-119.2,180.4-119.2S878.5,202.6,878.5,268.3z"/>
		<path d="M757.4,211.5c12.4,5.5,23,12.6,31.1,20.9l29.4-11.4c-11.2-11.7-26.1-21.7-43.5-29.2L757.4,211.5z"/>
		<path d="M578.3,221l29.4,11.4c8.1-8.3,18.8-15.4,31.1-20.9l-16.9-19.7C604.3,199.3,589.4,209.2,578.3,221z"/>
		<path d="M704.2,199.7c15.2,0.6,29.6,3.3,42.5,7.6l16.9-19.7c-17.9-6.3-38.1-10.1-59.4-10.7V199.7z"/>
		<path d="M621.7,352.9l17-19.7c-12.4-5.5-23-12.6-31.2-21l-29.4,11.4C589.3,335.4,604.2,345.4,621.7,352.9z"/>
		<path d="M774.4,352.9c17.5-7.5,32.4-17.5,43.6-29.3l-29.4-11.4c-8.1,8.3-18.8,15.5-31.2,21L774.4,352.9z"/>
		<path d="M691.9,199.7v-22.8c-21.4,0.6-41.5,4.4-59.4,10.7l16.9,19.7C662.3,203,676.7,200.3,691.9,199.7z"/>
		<path d="M806.1,268.1H840c-0.9-14.4-6.6-27.9-16-40l-29.4,11.4C801.2,248.2,805.2,257.9,806.1,268.1z"/>
		<path d="M704.2,367.8c21.4-0.6,41.6-4.4,59.6-10.7l-16.9-19.7c-12.9,4.4-27.4,7.1-42.6,7.7V367.8z"/>
		<path d="M824.1,316.4c9.3-12.1,15-25.6,15.9-40h-33.9c-0.8,10.3-4.8,19.9-11.3,28.6L824.1,316.4z"/>
		<path d="M590,268.1c0.9-10.2,4.9-19.9,11.4-28.6l-29.4-11.4c-9.4,12-15,25.6-16,40H590z"/>
		<path d="M572,316.4l29.4-11.4c-6.5-8.7-10.5-18.4-11.3-28.6h-33.9C557,290.8,562.6,304.4,572,316.4z"/>
		<path d="M691.9,367.8V345c-15.3-0.6-29.7-3.3-42.6-7.7l-16.9,19.7C650.3,363.4,670.5,367.2,691.9,367.8z"/>
		<path d="M748.5,221.6c4.7-3.1,4.7-8.2,0-11.4s-12.3-3.1-16.9,0c-2.4,1.6-3.6,3.8-3.5,5.9l-16.3,11c-3.9-1.8-8.6-2.9-13.7-2.9
			s-9.8,1.1-13.7,2.9l-16.3-11c0.1-2.1-1.1-4.3-3.5-5.9c-4.7-3.1-12.3-3.1-16.9,0c-4.7,3.1-4.7,8.2,0,11.4c2.4,1.6,5.6,2.4,8.8,2.3
			l18.5,12.5c-0.4,1.2-0.7,2.5-0.7,3.8c0,3.4,1.6,6.6,4.3,9.2l-22.2,14.9c-3.2-0.1-6.4,0.7-8.8,2.3c-4.7,3.1-4.7,8.2,0,11.4
			c4.7,3.1,12.3,3.1,16.9,0c2.4-1.6,3.6-3.8,3.5-5.9l23.6-15.9v8.6c-4,1.5-6.7,4.4-6.7,7.6c0,4.8,5.8,8.8,13.1,8.8
			c7.2,0,13.1-3.9,13.1-8.8c0-3.2-2.6-6.1-6.5-7.6v-8.5l23.5,15.8c-0.1,2.1,1.1,4.3,3.5,5.9c4.7,3.1,12.3,3.1,16.9,0
			c4.7-3.1,4.7-8.2,0-11.4c-2.4-1.6-5.6-2.4-8.8-2.3l-22.2-14.9c2.7-2.6,4.3-5.8,4.3-9.2c0-1.3-0.2-2.6-0.7-3.8l18.5-12.5
			C742.9,224,746.1,223.2,748.5,221.6z"/>
	</g>
	<g>
		<g>
			<path d="M504.7,700.8c0,106.6,86.8,193.4,193.4,193.4c106.6,0,193.4-86.8,193.4-193.4s-86.8-193.4-193.4-193.4
				C591.4,507.4,504.7,594.1,504.7,700.8z M878.5,700.8c0,99.5-80.9,180.4-180.4,180.4s-180.4-80.9-180.4-180.4
				s80.9-180.4,180.4-180.4S878.5,601.3,878.5,700.8z"/>
			<path d="M523.4,700.8c0,96.3,78.4,174.7,174.7,174.7s174.7-78.4,174.7-174.7c0-96.3-78.4-174.7-174.7-174.7
				S523.4,604.5,523.4,700.8z M859.8,700.8c0,89.2-72.5,161.7-161.7,161.7S536.4,790,536.4,700.8c0-89.2,72.5-161.7,161.7-161.7
				S859.8,611.6,859.8,700.8z"/>
			<path d="M850.3,707.1v-6.5v-6.5h-13.8c-0.4-8.3-1.5-16.4-3.3-24.3l13.2-3.7l-1.7-6.2l-1.7-6.2l-13.2,3.7
				c-2.3-7.1-5.2-13.9-8.6-20.4L833,630l-6.5-11.2l-12,6.9c-4.4-6.9-9.5-13.3-15.1-19.3l9.7-9.9l-4.6-4.5l-4.6-4.5l-9.7,9.9
				c-5.5-4.9-11.4-9.4-17.6-13.4l6.9-11.9l-5.6-3.2l-5.6-3.2l-6.9,12c-7.2-3.7-14.8-6.8-22.7-9.3l3.4-13.3l-6.3-1.6l-6.3-1.6
				l-3.4,13.3c-7.1-1.5-14.4-2.4-21.9-2.7v-13.7h-6.5h-6.5v13.8c-8.3,0.4-16.4,1.5-24.3,3.3l-3.7-13.2l-12.5,3.5l3.7,13.3
				c-7,2.3-13.8,5.2-20.2,8.6l-6.9-11.9l-11.2,6.5l6.9,12c-6.9,4.4-13.4,9.5-19.3,15l-9.9-9.7l-4.5,4.6l-4.5,4.6l9.9,9.7
				c-4.9,5.4-9.3,11.3-13.3,17.4l-12-6.9l-3.2,5.6l-3.2,5.6l11.9,6.9c-3.7,7.2-6.9,14.8-9.3,22.7l-13.3-3.4l-3.2,12.6l13.3,3.4
				c-1.5,7.1-2.4,14.4-2.8,21.8h-13.8v6.5v6.5h13.7c0.4,8.3,1.5,16.4,3.3,24.3l-13.2,3.7l1.7,6.2l1.7,6.2l13.2-3.7
				c2.3,7,5.1,13.8,8.5,20.3l-12,6.9l3.2,5.6l3.2,5.6l11.9-6.9c4.4,6.9,9.4,13.4,15,19.4l-9.7,9.9l9.2,9.1l9.7-9.9
				c5.5,4.9,11.3,9.4,17.5,13.4l-6.9,12l5.6,3.2l5.6,3.2l6.9-11.9c7.2,3.8,14.8,6.9,22.6,9.4l-3.4,13.3l12.6,3.2l3.4-13.3
				c7.1,1.5,14.5,2.5,22,2.8V853h13v-13.7c8.3-0.4,16.4-1.5,24.3-3.2l3.7,13.2l12.5-3.5l-3.7-13.2c7.1-2.3,13.9-5.2,20.5-8.6
				l6.9,11.9l5.6-3.2l5.6-3.2l-6.9-12c6.9-4.4,13.4-9.5,19.4-15l9.9,9.7l9.1-9.2l-9.9-9.7c4.9-5.5,9.5-11.4,13.5-17.7l12,6.9
				l6.5-11.2l-11.9-6.9c3.7-7.2,6.9-14.8,9.3-22.7l13.3,3.4l1.6-6.3l1.6-6.3l-13.3-3.4c1.5-7.2,2.4-14.5,2.8-22.1H850.3z
				 M565.9,700.6L565.9,700.6L565.9,700.6z M697.8,568.6L697.8,568.6L697.8,568.6z M603.7,608.2L603.7,608.2L603.7,608.2z
				 M605.2,794.9L605.2,794.9L605.2,794.9z M664.7,828.7L664.7,828.7L664.7,828.7z M764,815.3L764,815.3L764,815.3z M698.1,826.5
				c-69.3,0-125.7-56.4-125.7-125.7c0-69.3,56.4-125.7,125.7-125.7s125.7,56.4,125.7,125.7C823.8,770.1,767.4,826.5,698.1,826.5z
				 M825.4,665.3L825.4,665.3L825.4,665.3z M830.2,700.6L830.2,700.6L830.2,700.6z"/>
			<path d="M721.5,705h27.3c1.8,4.8,6.4,8.3,11.8,8.3c7,0,12.6-5.6,12.6-12.6c0-7-5.6-12.6-12.6-12.6c-5.4,0-10.1,3.5-11.8,8.3
				h-27.3c-1.8-9.6-9.4-17.2-19-18.9V650c4.8-1.8,8.3-6.4,8.3-11.8c0-7-5.6-12.6-12.6-12.6c-7,0-12.6,5.6-12.6,12.6
				c0,5.4,3.5,10.1,8.3,11.8v27.4c-9.6,1.8-17.2,9.3-19,18.9h-27.3c-1.8-4.8-6.4-8.3-11.8-8.3c-7,0-12.6,5.6-12.6,12.6
				c0,7,5.6,12.6,12.6,12.6c5.4,0,10.1-3.5,11.8-8.3h27.3c1.7,9.7,9.4,17.4,19.1,19.2v27.2c-4.8,1.8-8.3,6.4-8.3,11.8
				c0,7,5.6,12.6,12.6,12.6c7,0,12.6-5.6,12.6-12.6c0-5.4-3.5-10.1-8.3-11.8v-27.2C712.1,722.4,719.7,714.7,721.5,705z"/>
		</g>
	</g>
	<g>
		<path d="M1260.4,594.5c-38.7-21-90-32.6-144.4-32.6c-54.5,0-105.7,11.6-144.4,32.6c-35.4,19.3-56.7,44.5-61.1,72
			c-0.5,1-0.9,2-0.9,3.2v60.6c0,0.9,0.2,1.7,0.5,2.5c3.5,28.3,25,54.4,61.4,74.2c38.7,21,90,32.6,144.4,32.6
			c54.5,0,105.7-11.6,144.4-32.6c36.4-19.8,57.9-45.9,61.4-74.2c0.3-0.8,0.5-1.6,0.5-2.5v-60.6c0-1.2-0.3-2.2-0.9-3.2
			C1317.1,639,1295.8,613.8,1260.4,594.5z M977.7,748.2c-35.6-19.3-55.2-44.6-55.2-71.2c0-26.5,19.6-51.8,55.2-71.2
			c5-2.7,10.3-5.3,15.8-7.7c-2.7,1.3-5.3,2.6-7.8,4c-36.2,19.7-56.1,46.2-56.1,74.8c0,28.6,19.9,55.2,56.1,74.8
			c2.6,1.4,5.2,2.7,7.8,4C988.1,753.5,982.8,751,977.7,748.2z M991.9,740.5c-31.8-17.3-49.3-39.8-49.3-63.5
			c0-23.6,17.5-46.2,49.3-63.5c33-18,77.1-27.9,124.1-27.9c47,0,91,9.9,124.1,27.9c31.8,17.3,49.3,39.8,49.3,63.5
			c0,23.6-17.5,46.2-49.3,63.5c-33,18-77.1,27.9-124.1,27.9C1069,768.4,1024.9,758.5,991.9,740.5z M1254.2,748.2
			c-5,2.7-10.3,5.3-15.8,7.7c2.7-1.3,5.3-2.6,7.8-4c36.2-19.7,56.1-46.2,56.1-74.8c0-28.6-19.9-55.2-56.1-74.8
			c-2.5-1.4-5.2-2.7-7.8-4c5.5,2.4,10.8,5,15.8,7.7c35.6,19.3,55.2,44.6,55.2,71.2C1309.4,703.6,1289.8,728.9,1254.2,748.2z"/>
		<path d="M1078.7,593.6c-8.3,1.2-16.5,2.7-24.4,4.6c-3.5,0.9-5.6,4.4-4.8,7.8c0.7,3,3.4,4.9,6.3,4.9c0.5,0,1-0.1,1.5-0.2
			c7.4-1.8,15.2-3.3,23.1-4.4c3.5-0.5,6-3.8,5.5-7.3C1085.6,595.6,1082.3,593.1,1078.7,593.6z"/>
		<path d="M1030.5,605.6c-8.2,3.1-15.9,6.6-22.8,10.5c-3.1,1.8-4.2,5.7-2.5,8.8c1.2,2.1,3.4,3.3,5.7,3.3c1.1,0,2.2-0.3,3.2-0.8
			c6.4-3.6,13.5-6.8,21-9.7c3.4-1.3,5-5,3.8-8.4C1037.6,606,1033.9,604.3,1030.5,605.6z"/>
		<path d="M1196.7,736.4c-7,2.6-14.6,4.9-22.3,6.9c-3.5,0.9-5.6,4.4-4.8,7.8c0.7,3,3.4,4.9,6.3,4.9c0.5,0,1-0.1,1.5-0.2
			c8.3-2,16.3-4.5,23.8-7.3c3.4-1.3,5-5,3.8-8.3C1203.8,736.9,1200.1,735.2,1196.7,736.4z"/>
		<path d="M1236.4,713.7c-5.3,4.7-11.5,9-18.6,13c-3.1,1.7-4.2,5.7-2.5,8.8c1.2,2.1,3.4,3.3,5.7,3.3c1.1,0,2.2-0.3,3.2-0.8
			c7.9-4.4,14.9-9.3,20.9-14.6c2.7-2.4,2.9-6.5,0.6-9.2C1243.2,711.6,1239.1,711.4,1236.4,713.7z"/>
		<path d="M1252.8,705.7c1,0.6,2.1,0.8,3.1,0.8c2.3,0,4.5-1.2,5.7-3.3c4.7-8.4,7-17.2,7-26.2l0-0.3c0-3.6-2.9-6.4-6.5-6.4
			c0,0,0,0,0,0c-3.6,0-6.5,2.9-6.4,6.5l0,0.3c0,6.7-1.8,13.4-5.4,19.9C1248.6,700.1,1249.7,704,1252.8,705.7z"/>
		<path d="M1151.3,747.7c-7.7,1.1-15.5,1.8-23.5,2.1c-3.6,0.2-6.3,3.2-6.2,6.8c0.2,3.5,3,6.2,6.5,6.2c0.1,0,0.2,0,0.3,0
			c8.3-0.4,16.6-1.1,24.7-2.2c3.5-0.5,6-3.8,5.5-7.3C1158.1,749.7,1154.8,747.2,1151.3,747.7z"/>
		<path d="M1244.7,630.4c-2.7-2.4-6.8-2.1-9.1,0.6c-2.4,2.7-2.1,6.8,0.6,9.1c6,5.3,10.7,10.9,14,16.8c1.2,2.1,3.4,3.3,5.7,3.3
			c1.1,0,2.2-0.3,3.2-0.8c3.1-1.8,4.2-5.7,2.5-8.8C1257.5,643.5,1251.8,636.7,1244.7,630.4z"/>
		<path d="M986.9,630.8c-7.1,6.3-12.7,13.1-16.6,20.3c-1.7,3.1-0.6,7.1,2.5,8.8c1,0.5,2.1,0.8,3.1,0.8c2.3,0,4.5-1.2,5.7-3.4
			c3.2-5.9,7.9-11.5,13.9-16.8c2.7-2.4,2.9-6.5,0.5-9.2C993.6,628.6,989.5,628.4,986.9,630.8z"/>
		<path d="M1152.8,593.5c-3.6-0.5-6.8,2-7.3,5.5c-0.5,3.5,2,6.8,5.5,7.3c7.9,1.1,15.7,2.5,23.1,4.4c0.5,0.1,1,0.2,1.5,0.2
			c2.9,0,5.6-2,6.3-5c0.8-3.5-1.3-7-4.8-7.8C1169.3,596.2,1161.1,594.7,1152.8,593.5z"/>
		<path d="M1103.4,591.4c-3.6,0.2-6.3,3.2-6.2,6.8c0.2,3.5,3,6.2,6.5,6.2c0.1,0,0.2,0,0.3,0c7.8-0.4,15.8-0.4,23.6,0
			c3.6,0.2,6.6-2.6,6.8-6.2c0.2-3.6-2.6-6.6-6.2-6.8C1119.9,591,1111.6,591,1103.4,591.4z"/>
		<path d="M1201,605.4c-3.4-1.3-7.1,0.4-8.3,3.8c-1.3,3.4,0.4,7.1,3.8,8.3c7.6,2.8,14.7,6.1,21.1,9.6c1,0.6,2.1,0.8,3.2,0.8
			c2.3,0,4.5-1.2,5.7-3.3c1.7-3.1,0.6-7.1-2.5-8.8C1216.8,612,1209.2,608.5,1201,605.4z"/>
		<path d="M1080.8,747.7c-3.5-0.5-6.8,2-7.3,5.5c-0.5,3.5,2,6.8,5.5,7.3c8,1.1,16.3,1.9,24.7,2.2c0.1,0,0.2,0,0.3,0
			c3.4,0,6.3-2.7,6.5-6.2c0.2-3.6-2.6-6.6-6.2-6.8C1096.4,749.5,1088.5,748.8,1080.8,747.7z"/>
		<path d="M1035.4,736.5c-3.4-1.3-7.1,0.4-8.3,3.8c-1.3,3.4,0.4,7.1,3.8,8.3c7.5,2.8,15.5,5.3,23.8,7.3c0.5,0.1,1,0.2,1.5,0.2
			c2.9,0,5.6-2,6.3-4.9c0.8-3.5-1.3-7-4.8-7.8C1049.9,741.4,1042.4,739.1,1035.4,736.5z"/>
		<path d="M969.8,670.7C969.8,670.7,969.7,670.7,969.8,670.7c-3.6,0-6.5,2.9-6.5,6.5c0,8.9,2.4,17.7,7.1,26.1
			c1.2,2.1,3.4,3.3,5.7,3.3c1.1,0,2.2-0.3,3.2-0.8c3.1-1.7,4.2-5.7,2.5-8.8c-3.6-6.5-5.5-13.1-5.5-19.9
			C976.2,673.6,973.3,670.7,969.8,670.7z"/>
		<path d="M995.7,713.8c-2.7-2.4-6.8-2.1-9.2,0.6c-2.4,2.7-2.1,6.8,0.6,9.2c6,5.3,13,10.2,20.9,14.6c1,0.6,2.1,0.8,3.2,0.8
			c2.3,0,4.5-1.2,5.7-3.3c1.7-3.1,0.6-7.1-2.5-8.8C1007.2,722.9,1001,718.5,995.7,713.8z"/>
		<path d="M1004.8,677.1c0,35.6,48.8,63.4,111.2,63.4c62.3,0,111.2-27.9,111.2-63.4s-48.8-63.4-111.2-63.4
			C1053.6,613.6,1004.8,641.5,1004.8,677.1z M1214.2,677.1c0,27.3-45,50.4-98.2,50.4c-53.2,0-98.2-23.1-98.2-50.4s45-50.4,98.2-50.4
			C1169.2,626.6,1214.2,649.7,1214.2,677.1z"/>
		<path d="M1140.2,681.3h31.8c2.5,1.8,6.4,3,10.9,3c7.4,0,13.5-3.3,13.5-7.3s-6-7.3-13.5-7.3c-4.5,0-8.4,1.2-10.9,3h-31.9
			c-2.9-4.8-10.5-8.4-19.8-9.2v-15.9c5.3-1,9.2-3.7,9.2-6.9c0-4-6-7.3-13.5-7.3s-13.5,3.3-13.5,7.3c0,3.2,3.8,6,9.2,6.9v15.9
			c-9.3,0.9-16.8,4.5-19.8,9.2H1060c-2.5-1.8-6.4-3-10.9-3c-7.4,0-13.5,3.3-13.5,7.3s6,7.3,13.5,7.3c4.5,0,8.4-1.2,10.9-3h31.8
			c2.9,4.8,10.5,8.5,19.9,9.4v15.7c-5.3,1-9.2,3.7-9.2,6.9c0,4,6,7.3,13.5,7.3s13.5-3.3,13.5-7.3c0-3.2-3.8-6-9.2-6.9v-15.7
			C1129.7,689.8,1137.3,686.1,1140.2,681.3z"/>
	</g>
	<g>
		<path d="M421,577.4c-37.9-25.8-88.2-39.9-141.7-39.9c-53.4,0-103.7,14.2-141.7,39.9c-38.7,26.3-60,61.5-60,99.1v54
			c0,0.6,0.1,1.2,0.3,1.8c2.5,34.9,23.5,67.3,59.8,91.9c37.9,25.8,88.2,39.9,141.7,39.9c53.4,0,103.7-14.2,141.7-39.9
			c36-24.5,57-56.6,59.7-91.3c0.3-0.8,0.5-1.6,0.5-2.4v-54c0-0.5-0.1-1-0.2-1.4C480.5,638,459.2,603.3,421,577.4z M279.3,802.5
			c-104.1,0-188.7-56.5-188.7-126c0-69.5,84.7-126,188.7-126s188.7,56.5,188.7,126C468.1,746,383.4,802.5,279.3,802.5z"/>
		<path d="M457.9,670.7c0-0.7-0.1-1.5-0.2-2.2c0-0.1,0-0.2,0-0.3c-1.6-16.5-7.8-32.3-18.2-46.8l0.3-0.1l-3.7-4.4
			c-1.3-1.7-2.7-3.3-4.2-4.9l-1-1.1l-0.1,0c-6.1-6.7-13.3-13.1-21.3-19c-0.1,0-0.1-0.1-0.2-0.1c-1.5-1.1-3-2.2-4.6-3.3
			c-8.7-5.9-18.2-11.1-28.2-15.6l0.1-0.1l-5.4-2.1c-2-0.8-4.1-1.7-6.2-2.5l-1.2-0.5l0,0c-22.4-8.3-47.1-13.2-72.9-14.3
			c0,0-0.1,0-0.1,0c-1.7-0.1-3.4-0.1-5.2-0.2V553l-6.3,0c0,0,0,0-0.1,0c0,0,0,0-0.1,0h0h-6.5v0.1c0,0,0,0-0.1,0
			c-1.6,0-3.3,0.1-4.9,0.2c-0.1,0-0.3,0-0.4,0c-25.8,1.2-50.5,6.1-72.8,14.4l0,0l-1.1,0.4c-2.1,0.8-4.2,1.6-6.2,2.5l-5.4,2.1
			l0.1,0.1c-10,4.5-19.4,9.7-28.1,15.6c-1.6,1.1-3.2,2.2-4.7,3.4c0,0,0,0-0.1,0c-8.1,5.9-15.2,12.3-21.4,19l-0.1,0l-0.9,1.1
			c-1.5,1.7-2.9,3.3-4.2,5l-3.7,4.3l0.3,0.1c-10.4,14.4-16.6,30.3-18.2,46.7c0,0.1,0,0.3,0,0.4c-0.1,0.7-0.1,1.5-0.2,2.2h-0.2
			l0.1,5.5c0,0.1,0,0.1,0,0.2c0,0,0,0.1,0,0.1c0,0.2,0,0.4,0,0.6l0.1,6.6h0.2c1.4,17.3,7.9,33.9,19.1,49l-0.3,0.1l3.7,4.3
			c1.4,1.7,2.9,3.4,4.4,5.1l0.9,1.1l0,0c7.1,7.7,15.5,14.8,25.2,21.4c1.5,1,3,2,4.6,3c0,0,0.1,0.1,0.1,0.1
			c7.6,4.8,15.8,9.1,24.3,12.9l-0.1,0.1l5.4,2.1c1.9,0.8,3.9,1.5,5.8,2.3l1.6,0.6l0,0c22.1,8.1,46.5,12.9,72,14c0.2,0,0.3,0,0.5,0
			c1.6,0.1,3.2,0.1,4.8,0.2c0,0,0,0,0,0l0,0l1.4,0c1.6,0,3.2,0,4.8,0.1l0.2,0l0.1,0c0,0,0,0,0.1,0l6.4,0v-0.1c0,0,0.1,0,0.1,0
			c1.5,0,3.1-0.1,4.6-0.2c0.2,0,0.4,0,0.6,0c25.4-1.1,49.8-5.9,71.9-14l0,0l1.5-0.6c2-0.7,4-1.5,6-2.3l5.3-2.1l-0.1-0.1
			c8.6-3.8,16.8-8.1,24.4-13c0,0,0,0,0.1,0c1.6-1,3.1-2,4.7-3c9.6-6.5,18-13.7,25.1-21.3l0,0l0.9-1c1.5-1.7,3-3.4,4.4-5.1l3.7-4.3
			l-0.3-0.1c11.2-15.1,17.7-31.7,19.1-49h0.2l0.1-6.4l0-0.2c0-0.2,0-0.4,0-0.6c0-0.1,0-0.2,0-0.3l0.1-5.5H457.9z M367.8,583.1
			c20,8.5,37.1,19.7,50.1,32.8l-11.9,4.7l-0.1-0.1l-0.1,0c-5-5.5-10.9-10.6-17.4-15.4c0,0-0.1,0-0.1-0.1c-1.3-0.9-2.6-1.9-3.9-2.8
			c-6.9-4.7-14.4-8.9-22.3-12.5L367.8,583.1z M391.7,714.1c6.5-9.5,10.5-19.8,11.7-30.5h12.4c-1.4,12-6.4,23.6-14.7,34.3l-9.1-3.6
			l0.1-0.1L391.7,714.1z M348.6,748.5c0.3-0.1,0.6-0.3,0.9-0.4c0.6-0.3,1.1-0.5,1.7-0.8c0.8-0.4,1.5-0.8,2.3-1.2
			c0.8-0.4,1.7-0.9,2.5-1.3c0.9-0.5,1.7-0.9,2.5-1.4c0.8-0.5,1.6-1,2.5-1.4c0.5-0.3,1.1-0.7,1.6-1c1.2-0.7,2.3-1.5,3.5-2.2
			c0.1-0.1,0.2-0.1,0.3-0.2c6.3-4.2,11.8-8.9,16.5-13.8l8.9,3.5c-10.5,10-23.8,18.5-39.3,25.1l-3.8-4.4l0.1,0L348.6,748.5z
			 M286.3,762.9c1.5-0.1,2.9-0.1,4.4-0.2c0.9-0.1,1.7-0.1,2.5-0.2c1-0.1,1.9-0.2,2.9-0.2c1-0.1,1.9-0.2,2.9-0.3
			c0.4,0,0.9-0.1,1.3-0.2c2.2-0.3,4.4-0.6,6.6-0.9c0.1,0,0.2,0,0.3,0c7.7-1.2,15.3-2.9,22.5-5.2c0,0,0,0,0,0c2.1-0.6,4.2-1.3,6.2-2
			l3.7,4.3c-16.8,5.5-35.1,8.6-53.9,9.2v-4.2h0V763C285.9,762.9,286.1,762.9,286.3,762.9z M285.8,750v-11.2
			c11.3-0.6,22.3-2.6,32.5-6.1l8.7,10.2C314,747.1,300.1,749.4,285.8,750z M334.8,732.3l-4-4.7c8.3-4.1,15.5-9.2,21.4-15l17.5,6.9
			c-8.1,7.4-18.3,13.8-29.9,18.8L334.8,732.3z M300.1,591.1c-0.3,0-0.6-0.1-0.9-0.1c-1.1-0.1-2.1-0.2-3.2-0.3
			c-0.8-0.1-1.6-0.1-2.4-0.2c-1.2-0.1-2.3-0.2-3.5-0.2c-1.2-0.1-2.5-0.1-3.8-0.2c-0.2,0-0.4,0-0.6,0v-0.1h0v-4.2
			c19,0.6,37.7,3.8,54.7,9.5l-3.7,4.3l-0.1,0l0,0C325.2,595.4,312.9,592.6,300.1,591.1z M327.6,610.1l-8.7,10.3
			c-10.3-3.6-21.6-5.7-33.1-6.3V603C300.3,603.5,314.5,606,327.6,610.1z M340.5,615c11.7,5.1,21.9,11.7,30,19.3l-17.6,6.9
			c-5.8-6-13.1-11.2-21.5-15.5L340.5,615z M383.9,629.1L383.9,629.1l-0.2,0c-4.1-4.3-8.7-8.4-14-12.3c0,0,0,0,0,0
			c-1.1-0.8-2.2-1.6-3.3-2.3c-0.3-0.2-0.6-0.4-0.9-0.6c-0.8-0.6-1.7-1.1-2.6-1.7c-0.5-0.3-1.1-0.7-1.6-1c-1.1-0.7-2.3-1.4-3.5-2
			c-0.7-0.4-1.4-0.8-2.1-1.1c-0.6-0.3-1.2-0.7-1.9-1c-0.8-0.4-1.6-0.8-2.4-1.2c-0.3-0.2-0.6-0.3-1-0.5c-0.4-0.2-0.8-0.4-1.2-0.6
			l4-4.7c15.6,6.7,29,15.4,39.4,25.6L383.9,629.1z M390.5,670.5H368c-0.9-6.5-3.1-12.8-6.7-18.7l18.5-7.3
			C385.7,652.7,389.4,661.5,390.5,670.5z M367.8,683.5h22.5c-1.3,8.9-5.1,17.7-11.2,25.7l-18.4-7.2
			C364.4,696.1,366.8,689.9,367.8,683.5z M403.9,670.6l0-0.1h-0.3c-1-10.8-4.9-21.2-11.3-30.7l6.5-2.6l3-1.2
			c8.1,10.8,12.9,22.6,14.1,34.6H403.9z M285.7,566.1c24.2,0.6,47.8,4.8,69.2,12.1l-5.4,6.4l-0.1,0l0,0c-18.5-6.8-39-10.8-60.3-11.7
			c0,0-0.1,0-0.1,0c-1.1,0-2.2-0.1-3.3-0.1v-0.1h0V566.1z M273.9,638.7c-0.3,0.5-0.6,1.1-0.8,1.7L257,629.1
			c3.9-0.8,7.8-1.4,11.8-1.7c-0.1,0.7-0.2,1.4-0.2,2.1C268.6,633.4,270.7,636.8,273.9,638.7z M272.8,614.1
			c-8.4,0.4-16.7,1.7-24.6,3.7c-0.2-0.2-0.4-0.3-0.6-0.5c-3.4-2.4-7.7-2.5-11.1-0.7l-5.5-6.5c13.1-4.2,27.3-6.6,41.8-7.2V614.1z
			 M272.8,585.7v4.3c-0.2,0-0.3,0-0.5,0c-1.3,0.1-2.7,0.1-4,0.2c-1,0.1-2,0.1-2.9,0.2c-1,0.1-1.9,0.2-2.9,0.2c-1,0.1-2,0.2-3,0.3
			c-0.4,0-0.9,0.1-1.3,0.2c-12.7,1.5-24.9,4.3-36.3,8.4l0,0l-0.1,0l-3.7-4.3C235.1,589.5,253.8,586.3,272.8,585.7z M209.8,748.7
			l-3.8,4.4c-15.4-6.5-28.8-15.1-39.2-25.1l8.9-3.5c4.8,4.9,10.3,9.6,16.6,13.8c0.1,0.1,0.3,0.2,0.4,0.2c1.1,0.7,2.2,1.5,3.4,2.2
			c0.5,0.3,1.1,0.7,1.6,1c0.8,0.5,1.7,1,2.6,1.5c0.8,0.5,1.6,0.9,2.4,1.3c0.9,0.5,1.7,0.9,2.6,1.4c0.7,0.4,1.5,0.7,2.2,1.1
			c0.6,0.3,1.2,0.6,1.8,0.9c0.3,0.1,0.5,0.2,0.8,0.4L209.8,748.7L209.8,748.7z M166.6,714.3l-9.1,3.6c-8.3-10.7-13.3-22.3-14.7-34.3
			h12.4c1.2,10.7,5.2,21,11.7,30.5L166.6,714.3L166.6,714.3z M174.9,629.1L174.9,629.1l-0.2,0l-8.8-3.5
			c10.4-10.2,23.8-18.9,39.4-25.6l4,4.7c-0.5,0.2-0.9,0.4-1.4,0.6c-0.3,0.1-0.5,0.2-0.8,0.4c-0.8,0.4-1.7,0.8-2.5,1.3
			c-0.6,0.3-1.2,0.6-1.8,1c-0.7,0.4-1.4,0.8-2.1,1.2c-1.2,0.7-2.3,1.3-3.4,2c-0.5,0.3-1.1,0.7-1.6,1c-0.8,0.5-1.7,1.1-2.5,1.6
			c-0.3,0.2-0.7,0.4-1,0.6C185.6,618.9,179.9,623.8,174.9,629.1z M181.6,645.7l15.8,6.2c-3.6,5.9-5.8,12.2-6.7,18.6h-22.5
			c1.1-9,4.8-17.8,10.7-25.9L181.6,645.7z M166.4,639.8c-6.4,9.6-10.2,19.9-11.2,30.7h-0.3l0,0.1h-12.1c1.2-12,6-23.8,14.1-34.6
			L166.4,639.8z M188.9,719.4l17.5-6.9c5.8,5.8,13.1,10.9,21.4,15l-6,7.1l-3.1,3.6C207.1,733.2,197,726.8,188.9,719.4z M179.5,709.1
			c-6.1-8-9.9-16.8-11.2-25.7h22.5c1,6.4,3.4,12.6,7,18.4L179.5,709.1z M188.1,634.3c8.1-7.6,18.3-14.1,30-19.3l9.1,10.7
			c-8.4,4.2-15.7,9.5-21.5,15.5L188.1,634.3z M272.8,566.1v6.6c-1,0-2,0.1-3.1,0.1c-0.1,0-0.2,0-0.4,0c-21.3,1-41.7,5-60.2,11.8l0,0
			l-0.1,0l-5.4-6.4C225,570.9,248.6,566.7,272.8,566.1z M190.8,583.1l5.7,6.7c-7.9,3.6-15.3,7.8-22.2,12.4c-1.4,0.9-2.7,1.9-4,2.8
			c0,0,0,0,0,0c-6.6,4.8-12.4,10-17.4,15.4l-0.1,0l-0.1,0.1l-11.9-4.7C153.7,602.8,170.8,591.6,190.8,583.1z M131.7,626.3l12.5,4.9
			c-8.2,11.8-13.2,24.8-14.4,38.2c0,0.1,0,0.2,0,0.3c0,0.3-0.1,0.6-0.1,0.9h-0.3l0,0.1h-15.6C115,655.3,121.1,640.1,131.7,626.3z
			 M113.9,683.7h15.9c1.3,13.8,6.5,27,15.2,39.1l-0.4,0.1l0.1,0.1l-12.1,4.7C121.8,714.1,115.4,699.1,113.9,683.7z M197.2,763.7
			l-5,5.9l-0.5,0.6c-19.8-8.3-36.8-19.2-49.9-32.1l11.9-4.7c5.9,6.2,12.7,12,20.5,17.3c1.2,0.8,2.5,1.7,3.8,2.5c0,0,0.1,0,0.1,0.1
			c6,3.8,12.4,7.2,19.1,10.3L197.2,763.7L197.2,763.7z M272.8,786.9c-23.8-0.6-47.1-4.7-68.2-11.8l5.4-6.4
			c18.3,6.6,38.5,10.5,59.4,11.4c0.1,0,0.3,0,0.4,0c1,0,1.9,0.1,2.9,0.1V786.9z M272.8,767.3c-18.7-0.6-37.1-3.8-53.8-9.2l3.7-4.4
			c2,0.7,4.1,1.4,6.2,2c0,0,0.1,0,0.1,0c7.2,2.2,14.7,3.9,22.5,5.2c0.1,0,0.2,0,0.3,0c2.2,0.3,4.4,0.6,6.6,0.9
			c0.4,0.1,0.9,0.1,1.3,0.2c1,0.1,2,0.2,2.9,0.3c0.9,0.1,1.9,0.2,2.8,0.2c0.9,0.1,1.8,0.1,2.7,0.2c1.4,0.1,2.8,0.2,4.2,0.2
			c0.1,0,0.3,0,0.4,0V767.3z M272.8,750c-14.3-0.6-28.3-2.9-41.1-7l8.7-10.2c10.1,3.4,21.2,5.5,32.4,6.1V750z M279.3,726
			c-13.6,0-26.9-2.4-38.6-6.9c-11.5-4.5-21-10.9-27.6-18.5l0,0c-6.3-7.2-9.6-15.4-9.8-23.7l0-0.5c0-8.2,3.1-16.1,9.2-23.4l0,0
			c5.8-6.9,14.1-12.9,24-17.4c2.6,1.3,5.5,1.5,8.2,0.7l13.5,9.5h-16.5c-2-2.6-5-4.2-8.5-4.2c-5.9,0-10.7,4.8-10.7,10.7
			s4.8,10.7,10.7,10.7c3.5,0,6.5-1.7,8.5-4.2h31.2v18.9c-0.6,0.3-1.2,0.6-1.7,1c-4.5,3.1-4.5,8.1,0,11.2c4.5,3.1,11.9,3.1,16.4,0
			c4.5-3.1,4.5-8.1,0-11.2c-0.5-0.4-1.1-0.7-1.7-1v-12.5l19.4,13.6c0.1,3.2,1.7,6.3,4.5,8.3c4.8,3.4,11.5,2.2,14.9-2.6
			c3.4-4.8,2.2-11.5-2.6-14.9c-2.8-2-6.3-2.4-9.4-1.4l-13.5-9.5h16.5c2,2.6,5,4.2,8.5,4.2c5.9,0,10.7-4.8,10.7-10.7
			s-4.8-10.7-10.7-10.7c-3.5,0-6.6,1.7-8.5,4.2h-29.9v-3.6c0-1.3-0.4-2.4-1-3.4c3.1-1.9,5.2-5.3,5.2-9.2c0-0.7-0.1-1.4-0.2-2.1
			c10.1,0.9,19.9,3.2,28.7,6.7c11.6,4.6,21.1,11.1,27.7,18.9c6,7.2,9.2,15.3,9.2,23.4l0,0.5c-0.1,8.3-3.5,16.5-9.8,23.7
			c-6.6,7.6-16.2,14-27.7,18.5C306.2,723.6,292.9,726,279.3,726z M285.7,786.9v-6.5h0v-0.1c1,0,1.9-0.1,2.9-0.1c0.2,0,0.4,0,0.5,0
			c21-0.9,41.1-4.8,59.3-11.4l5.4,6.4C332.8,782.2,309.5,786.3,285.7,786.9z M366.9,770.2l-5.5-6.5l0.1,0l-0.1-0.2
			c6.7-3,13.1-6.5,19.2-10.3c0,0,0,0,0,0c1.3-0.8,2.6-1.7,3.9-2.5c7.8-5.3,14.6-11.1,20.5-17.3l11.9,4.7
			C403.7,751,386.7,762,366.9,770.2z M426.1,727.8l-8-3.1L414,723l0.1-0.1l-0.4-0.1c8.7-12.1,13.9-25.3,15.2-39.1h15.9
			C443.3,699.1,436.9,714.1,426.1,727.8z M429.3,670.7l0-0.1H429c0-0.3-0.1-0.6-0.1-0.9c0-0.1,0-0.2,0-0.2
			c-1.3-13.5-6.2-26.4-14.5-38.3l12.5-4.9c10.6,13.8,16.7,29,18,44.4H429.3z"/>
	</g>
</g>
</svg>
